<mxfile host="app.diagrams.net" modified="2023-09-07T00:34:16.281Z" agent="Mozilla/5.0 (X11; Linux x86_64; rv:109.0) Gecko/20100101 Firefox/115.0" etag="nUWD_nh92PFicPLJxBqL" version="21.7.2" type="device">
  <diagram name="Page-1" id="dfpdE_gOu56ajNJ87Oah">
    <mxGraphModel dx="1908" dy="1204" grid="1" gridSize="10" guides="1" tooltips="1" connect="1" arrows="1" fold="1" page="1" pageScale="1" pageWidth="850" pageHeight="1100" math="0" shadow="0">
      <root>
        <mxCell id="0" />
        <mxCell id="1" parent="0" />
        <mxCell id="HwOvTlzHdmXnA-voCeij-1" value="FIM" style="strokeWidth=2;html=1;shape=mxgraph.flowchart.terminator;whiteSpace=wrap;" vertex="1" parent="1">
          <mxGeometry x="550" y="760" width="100" height="60" as="geometry" />
        </mxCell>
        <mxCell id="HwOvTlzHdmXnA-voCeij-5" value="" style="edgeStyle=orthogonalEdgeStyle;rounded=0;orthogonalLoop=1;jettySize=auto;html=1;" edge="1" parent="1" source="HwOvTlzHdmXnA-voCeij-2" target="HwOvTlzHdmXnA-voCeij-4">
          <mxGeometry relative="1" as="geometry" />
        </mxCell>
        <mxCell id="HwOvTlzHdmXnA-voCeij-2" value="INICIO" style="strokeWidth=2;html=1;shape=mxgraph.flowchart.terminator;whiteSpace=wrap;" vertex="1" parent="1">
          <mxGeometry x="40" y="60" width="100" height="60" as="geometry" />
        </mxCell>
        <mxCell id="HwOvTlzHdmXnA-voCeij-15" value="" style="edgeStyle=orthogonalEdgeStyle;rounded=0;orthogonalLoop=1;jettySize=auto;html=1;" edge="1" parent="1" source="HwOvTlzHdmXnA-voCeij-4" target="HwOvTlzHdmXnA-voCeij-6">
          <mxGeometry relative="1" as="geometry" />
        </mxCell>
        <mxCell id="HwOvTlzHdmXnA-voCeij-4" value="DECLARE salario, conta1, conta2, resto e total" style="rounded=0;whiteSpace=wrap;html=1;" vertex="1" parent="1">
          <mxGeometry x="20" y="180" width="140" height="90" as="geometry" />
        </mxCell>
        <mxCell id="HwOvTlzHdmXnA-voCeij-14" value="" style="edgeStyle=orthogonalEdgeStyle;rounded=0;orthogonalLoop=1;jettySize=auto;html=1;" edge="1" parent="1" source="HwOvTlzHdmXnA-voCeij-6" target="HwOvTlzHdmXnA-voCeij-9">
          <mxGeometry relative="1" as="geometry" />
        </mxCell>
        <mxCell id="HwOvTlzHdmXnA-voCeij-6" value="&quot;Informe seu salário&quot;" style="shape=document;whiteSpace=wrap;html=1;boundedLbl=1;" vertex="1" parent="1">
          <mxGeometry x="30" y="340" width="120" height="80" as="geometry" />
        </mxCell>
        <mxCell id="HwOvTlzHdmXnA-voCeij-16" value="" style="edgeStyle=orthogonalEdgeStyle;rounded=0;orthogonalLoop=1;jettySize=auto;html=1;" edge="1" parent="1" source="HwOvTlzHdmXnA-voCeij-7" target="HwOvTlzHdmXnA-voCeij-10">
          <mxGeometry relative="1" as="geometry" />
        </mxCell>
        <mxCell id="HwOvTlzHdmXnA-voCeij-7" value="&quot;Informe o valor da primeira conta&quot;" style="shape=document;whiteSpace=wrap;html=1;boundedLbl=1;" vertex="1" parent="1">
          <mxGeometry x="200" y="340" width="120" height="80" as="geometry" />
        </mxCell>
        <mxCell id="HwOvTlzHdmXnA-voCeij-17" value="" style="edgeStyle=orthogonalEdgeStyle;rounded=0;orthogonalLoop=1;jettySize=auto;html=1;" edge="1" parent="1" source="HwOvTlzHdmXnA-voCeij-8" target="HwOvTlzHdmXnA-voCeij-11">
          <mxGeometry relative="1" as="geometry" />
        </mxCell>
        <mxCell id="HwOvTlzHdmXnA-voCeij-8" value="&quot;Informe o valor da segunda conta&quot;" style="shape=document;whiteSpace=wrap;html=1;boundedLbl=1;" vertex="1" parent="1">
          <mxGeometry x="380" y="340" width="120" height="80" as="geometry" />
        </mxCell>
        <mxCell id="HwOvTlzHdmXnA-voCeij-12" style="edgeStyle=orthogonalEdgeStyle;rounded=0;orthogonalLoop=1;jettySize=auto;html=1;entryX=0;entryY=0.5;entryDx=0;entryDy=0;" edge="1" parent="1" source="HwOvTlzHdmXnA-voCeij-9" target="HwOvTlzHdmXnA-voCeij-7">
          <mxGeometry relative="1" as="geometry" />
        </mxCell>
        <mxCell id="HwOvTlzHdmXnA-voCeij-9" value="LEIA salario" style="shape=parallelogram;perimeter=parallelogramPerimeter;whiteSpace=wrap;html=1;fixedSize=1;" vertex="1" parent="1">
          <mxGeometry x="30" y="470" width="120" height="60" as="geometry" />
        </mxCell>
        <mxCell id="HwOvTlzHdmXnA-voCeij-13" style="edgeStyle=orthogonalEdgeStyle;rounded=0;orthogonalLoop=1;jettySize=auto;html=1;entryX=0;entryY=0.5;entryDx=0;entryDy=0;" edge="1" parent="1" source="HwOvTlzHdmXnA-voCeij-10" target="HwOvTlzHdmXnA-voCeij-8">
          <mxGeometry relative="1" as="geometry" />
        </mxCell>
        <mxCell id="HwOvTlzHdmXnA-voCeij-10" value="LEIA conta1" style="shape=parallelogram;perimeter=parallelogramPerimeter;whiteSpace=wrap;html=1;fixedSize=1;" vertex="1" parent="1">
          <mxGeometry x="200" y="470" width="120" height="60" as="geometry" />
        </mxCell>
        <mxCell id="HwOvTlzHdmXnA-voCeij-19" style="edgeStyle=orthogonalEdgeStyle;rounded=0;orthogonalLoop=1;jettySize=auto;html=1;entryX=0;entryY=0.5;entryDx=0;entryDy=0;" edge="1" parent="1" source="HwOvTlzHdmXnA-voCeij-11" target="HwOvTlzHdmXnA-voCeij-18">
          <mxGeometry relative="1" as="geometry" />
        </mxCell>
        <mxCell id="HwOvTlzHdmXnA-voCeij-11" value="LEIA conta2" style="shape=parallelogram;perimeter=parallelogramPerimeter;whiteSpace=wrap;html=1;fixedSize=1;" vertex="1" parent="1">
          <mxGeometry x="380" y="470" width="120" height="60" as="geometry" />
        </mxCell>
        <mxCell id="HwOvTlzHdmXnA-voCeij-23" value="" style="edgeStyle=orthogonalEdgeStyle;rounded=0;orthogonalLoop=1;jettySize=auto;html=1;" edge="1" parent="1" source="HwOvTlzHdmXnA-voCeij-18" target="HwOvTlzHdmXnA-voCeij-20">
          <mxGeometry relative="1" as="geometry" />
        </mxCell>
        <mxCell id="HwOvTlzHdmXnA-voCeij-18" value="total += conta1 * (1+0.02)" style="rounded=0;whiteSpace=wrap;html=1;" vertex="1" parent="1">
          <mxGeometry x="540" y="340" width="120" height="60" as="geometry" />
        </mxCell>
        <mxCell id="HwOvTlzHdmXnA-voCeij-25" value="" style="edgeStyle=orthogonalEdgeStyle;rounded=0;orthogonalLoop=1;jettySize=auto;html=1;" edge="1" parent="1" source="HwOvTlzHdmXnA-voCeij-20" target="HwOvTlzHdmXnA-voCeij-24">
          <mxGeometry relative="1" as="geometry" />
        </mxCell>
        <mxCell id="HwOvTlzHdmXnA-voCeij-20" value="total += conta2 * (1+0.02)" style="rounded=0;whiteSpace=wrap;html=1;" vertex="1" parent="1">
          <mxGeometry x="540" y="430" width="120" height="60" as="geometry" />
        </mxCell>
        <mxCell id="HwOvTlzHdmXnA-voCeij-27" value="" style="edgeStyle=orthogonalEdgeStyle;rounded=0;orthogonalLoop=1;jettySize=auto;html=1;" edge="1" parent="1" source="HwOvTlzHdmXnA-voCeij-24" target="HwOvTlzHdmXnA-voCeij-26">
          <mxGeometry relative="1" as="geometry" />
        </mxCell>
        <mxCell id="HwOvTlzHdmXnA-voCeij-24" value="resto = salario - total" style="rounded=0;whiteSpace=wrap;html=1;" vertex="1" parent="1">
          <mxGeometry x="540" y="520" width="120" height="60" as="geometry" />
        </mxCell>
        <mxCell id="HwOvTlzHdmXnA-voCeij-28" value="" style="edgeStyle=orthogonalEdgeStyle;rounded=0;orthogonalLoop=1;jettySize=auto;html=1;" edge="1" parent="1" source="HwOvTlzHdmXnA-voCeij-26" target="HwOvTlzHdmXnA-voCeij-1">
          <mxGeometry relative="1" as="geometry" />
        </mxCell>
        <mxCell id="HwOvTlzHdmXnA-voCeij-26" value="&quot;Com o salario de R${salario} e o valor total da conta a pagar de R${total} irá restar R${resto}" style="shape=document;whiteSpace=wrap;html=1;boundedLbl=1;size=0.16666666666666666;" vertex="1" parent="1">
          <mxGeometry x="520" y="600" width="160" height="120" as="geometry" />
        </mxCell>
      </root>
    </mxGraphModel>
  </diagram>
</mxfile>
